#!OML:ASF H:\Dans Jumps\Project 1\Capture day 1\Session 1\subject.ASF
:FULLY-SPECIFIED
:DEGREES
567
root -0.138784 17.6699 10.5439 7.36987 -1.10685 -1.70062
lowerback -0.683495 -0.0353309 0.119232
upperback 1.53028 -0.0769713 1.59957
thorax 1.95323 -0.0499278 1.57137
lowerneck -14.8042 -0.094429 -2.20051
upperneck 13.5373 0.135328 1.31798
head 6.55248 0.0638966 0.795952
rclavicle -3.32964e-015 -8.74653e-015
rhumerus -20.3635 -18.715 -82.1713
rradius 22.6049
rwrist 36.5749
rhand -21.8178 -27.9841
rfingers 7.12502
rthumb 4.58468 -57.9145
lclavicle -3.32964e-015 -8.74653e-015
lhumerus -22.9625 1.7434 88.4251
lradius 15.1433
lwrist -0.575242
lhand -25.7006 -6.44704
lfingers 7.12502
lthumb 0.834898 23.5311
rfemur -13.9127 -1.66717 21.0762
rtibia 22.1509
rfoot -14.1136 -3.10349
rtoes 4.99163
lfemur -14.9518 7.55713 -17.82
ltibia 20.5696
lfoot -10.3274 5.02097
ltoes -11.4715
568
root -0.142122 17.6703 10.55 7.35741 -1.04391 -1.70906
lowerback -0.712507 -0.0324137 0.129129
upperback 1.52644 -0.0733558 1.592
thorax 1.96547 -0.0479262 1.55813
lowerneck -14.7721 -0.108632 -2.20893
upperneck 13.424 0.117794 1.31726
head 6.51099 0.055325 0.794845
rclavicle -3.13086e-015 1.98785e-015
rhumerus -20.4641 -18.8115 -82.1155
rradius 22.5281
rwrist 36.6978
rhand -21.7442 -27.9604
rfingers 7.12502
rthumb 4.65576 -57.8892
lclavicle -3.13086e-015 1.98785e-015
lhumerus -23.0311 2.01761 88.2165
lradius 15.1108
lwrist -0.688718
lhand -25.5986 -6.10908
lfingers 7.12502
lthumb 0.933408 23.8686
rfemur -13.8456 -1.70152 21.1006
rtibia 22.1076
rfoot -14.1213 -3.13359
rtoes 5.00488
lfemur -14.9095 7.53006 -17.7917
ltibia 20.5452
lfoot -10.3468 4.99459
ltoes -11.468
569
root -0.145292 17.6706 10.5558 7.34607 -0.982568 -1.71456
lowerback -0.740565 -0.0302022 0.139047
upperback 1.52135 -0.0706292 1.58282
thorax 1.9759 -0.0463442 1.5432
lowerneck -14.7568 -0.11544 -2.20486
upperneck 13.3229 0.109189 1.30858
head 6.47612 0.0510186 0.790119
rclavicle 2.03754e-015 9.93923e-016
rhumerus -20.5697 -18.9206 -82.0565
rradius 22.4483
rwrist 36.8289
rhand -21.6768 -27.9415
rfingers 7.12502
rthumb 4.72085 -57.8689
lclavicle 2.03754e-015 9.93923e-016
lhumerus -23.1075 2.28264 88.0114
lradius 15.0949
lwrist -0.792224
lhand -25.5066 -5.77971
lfingers 7.12502
lthumb 1.02226 24.1976
rfemur -13.7804 -1.7358 21.1211
rtibia 22.0631
rfoot -14.128 -3.16315
rtoes 5.009
lfemur -14.8685 7.50747 -17.7678
ltibia 20.5186
lfoot -10.3659 4.96593
ltoes -11.4687
570
root -0.148378 17.671 10.5613 7.33487 -0.9253 -1.71961
lowerback -0.769308 -0.0274961 0.150656
upperback 1.51896 -0.0673069 1.57263
thorax 1.98948 -0.044448 1.52633
lowerneck -14.7595 -0.118516 -2.19029
upperneck 13.2294 0.104928 1.29251
head 6.44671 0.0487305 0.781807
rclavicle 3.8763e-015 -1.13307e-014
rhumerus -20.671 -19.0462 -81.997
rradius 22.3636
rwrist 36.9702
rhand -21.6125 -27.9307
rfingers 7.12502
rthumb 4.78295 -57.8567
lclavicle 3.8763e-015 -1.13307e-014
lhumerus -23.1813 2.54685 87.8072
lradius 15.0952
lwrist -0.885489
lhand -25.3802 -5.44121
lfingers 7.12502
lthumb 1.14432 24.5355
rfemur -13.7171 -1.76346 21.1404
rtibia 22.0185
rfoot -14.133 -3.19412
rtoes 5.01226
lfemur -14.8283 7.48786 -17.745
ltibia 20.4908
lfoot -10.3839 4.93805
ltoes -11.4757
571
root -0.151363 17.6714 10.5663 7.32397 -0.873079 -1.72792
lowerback -0.795416 -0.0241764 0.167062
upperback 1.51601 -0.0632287 1.56289
thorax 2.00098 -0.0420947 1.50722
lowerneck -14.7568 -0.123032 -2.18561
upperneck 13.1378 0.0991933 1.28587
head 6.41705 0.0460036 0.777997
rclavicle -1.19271e-015 -1.03368e-014
rhumerus -20.7764 -19.1849 -81.9347
rradius 22.2778
rwrist 37.1183
rhand -21.5587 -27.9125
rfingers 7.12502
rthumb 4.83491 -57.8373
lclavicle -1.19271e-015 -1.03368e-014
lhumerus -23.2583 2.80025 87.6079
lradius 15.1076
lwrist -0.962441
lhand -25.2487 -5.11516
lfingers 7.12502
lthumb 1.27139 24.8608
rfemur -13.656 -1.78616 21.1625
rtibia 21.9738
rfoot -14.1363 -3.22415
rtoes 5.00416
lfemur -14.7895 7.47149 -17.7191
ltibia 20.4629
lfoot -10.4014 4.91144
ltoes -11.4758
572
root -0.154356 17.6718 10.571 7.31305 -0.82511 -1.73551
lowerback -0.824117 -0.021347 0.181823
upperback 1.51578 -0.0598578 1.55352
thorax 2.01675 -0.0401424 1.48943
lowerneck -14.7577 -0.128531 -2.18331
upperneck 13.0533 0.0923663 1.28124
head 6.39029 0.0427772 0.775158
rclavicle -2.73329e-015 -4.37326e-015
rhumerus -20.8786 -19.341 -81.8712
rradius 22.1887
rwrist 37.2785
rhand -21.512 -27.8812
rfingers 7.12502
rthumb 4.87998 -57.805
lclavicle -2.73329e-015 -4.37326e-015
lhumerus -23.3331 3.04147 87.4155
lradius 15.1254
lwrist -1.02885
lhand -25.1255 -4.81124
lfingers 7.12502
lthumb 1.39032 25.164
rfemur -13.5971 -1.80004 21.1834
rtibia 21.93
rfoot -14.1382 -3.25791
rtoes 4.99739
lfemur -14.7525 7.45757 -17.6938
ltibia 20.4363
lfoot -10.4182 4.88469
ltoes -11.4605
573
root -0.157347 17.6721 10.5753 7.3017 -0.781261 -1.74447
lowerback -0.848957 -0.019016 0.196021
upperback 1.51497 -0.0571225 1.54554
thorax 2.02978 -0.0385166 1.47335
lowerneck -14.7532 -0.137951 -2.19049
upperneck 12.9753 0.0813504 1.28143
head 6.36475 0.0374162 0.775022
rclavicle 2.28602e-015 -5.36719e-015
rhumerus -20.9845 -19.4996 -81.8067
rradius 22.1011
rwrist 37.4324
rhand -21.4732 -27.843
rfingers 7.12502
rthumb 4.91744 -57.766
lclavicle 2.28602e-015 -5.36719e-015
lhumerus -23.4074 3.28222 87.2251
lradius 15.1222
lwrist -1.12194
lhand -25.1065 -4.72811
lfingers 7.12502
lthumb 1.40869 25.247
rfemur -13.5414 -1.80335 21.2053
rtibia 21.889
rfoot -14.1392 -3.29572
rtoes 5.00259
lfemur -14.7171 7.44516 -17.6668
ltibia 20.4105
lfoot -10.4342 4.85879
ltoes -11.4289
574
root -0.160379 17.6723 10.5792 7.28906 -0.74249 -1.75118
lowerback -0.872369 -0.016894 0.204779
upperback 1.51582 -0.0545916 1.53827
thorax 2.04374 -0.0370899 1.46106
lowerneck -14.75 -0.148903 -2.20197
upperneck 12.9033 0.0689897 1.2829
head 6.34142 0.0312765 0.775899
rclavicle 3.97569e-015 8.74653e-015
rhumerus -21.0891 -19.6608 -81.7436
rradius 22.0154
rwrist 37.5822
rhand -21.4383 -27.8031
rfingers 7.12502
rthumb 4.95119 -57.7252
lclavicle 3.97569e-015 8.74653e-015
lhumerus -23.4757 3.51478 87.0391
lradius 15.0861
lwrist -1.24519
lhand -25.1539 -4.86582
lfingers 7.12502
lthumb 1.36291 25.1096
rfemur -13.4892 -1.79614 21.2244
rtibia 21.8533
rfoot -14.1414 -3.33784
rtoes 5.02025
lfemur -14.681 7.43485 -17.6421
ltibia 20.3842
lfoot -10.4471 4.83516
ltoes -11.3901
575
root -0.1634 17.6725 10.5826 7.27667 -0.705199 -1.74926
lowerback -0.893146 -0.0163326 0.201803
upperback 1.51738 -0.0538989 1.53085
thorax 2.05699 -0.0367635 1.45515
lowerneck -14.7627 -0.155259 -2.21259
upperneck 12.8426 0.0631189 1.2835
head 6.32425 0.0282418 0.777053
rclavicle -5.96354e-016 3.37934e-015
rhumerus -21.1933 -19.8166 -81.6803
rradius 21.9329
rwrist 37.7255
rhand -21.4089 -27.7595
rfingers 7.12502
rthumb 4.9795 -57.6809
lclavicle -5.96354e-016 3.37934e-015
lhumerus -23.5391 3.75602 86.8543
lradius 15.0097
lwrist -1.42564
lhand -25.307 -5.27829
lfingers 7.12502
lthumb 1.21504 24.698
rfemur -13.4435 -1.78441 21.2337
rtibia 21.8245
rfoot -14.145 -3.38288
rtoes 5.04483
lfemur -14.6457 7.42413 -17.6273
ltibia 20.3549
lfoot -10.4569 4.8118
ltoes -11.3473
576
root -0.166268 17.6726 10.5857 7.26448 -0.669512 -1.74076
lowerback -0.913562 -0.0170898 0.191422
upperback 1.52075 -0.0548331 1.52302
thorax 2.07194 -0.0373732 1.45294
lowerneck -14.7817 -0.160045 -2.22795
upperneck 12.7846 0.0598874 1.2882
head 6.30899 0.026599 0.780567
rclavicle -5.96354e-016 -2.98177e-015
rhumerus -21.2928 -19.9651 -81.6196
rradius 21.8534
rwrist 37.8606
rhand -21.3794 -27.7209
rfingers 7.12502
rthumb 5.00798 -57.6417
lclavicle -5.96354e-016 -2.98177e-015
lhumerus -23.5939 3.98617 86.6786
lradius 14.9189
lwrist -1.60441
lhand -25.4489 -5.73052
lfingers 7.12502
lthumb 1.078 24.2465
rfemur -13.404 -1.77489 21.2351
rtibia 21.8045
rfoot -14.154 -3.42455
rtoes 5.07586
lfemur -14.6091 7.41565 -17.6213
ltibia 20.3205
lfoot -10.4634 4.78771
ltoes -11.3126
577
root -0.168976 17.6727 10.5885 7.25264 -0.634794 -1.72407
lowerback -0.934362 -0.0188106 0.172241
upperback 1.52525 -0.0568739 1.51419
thorax 2.08832 -0.0386754 1.4546
lowerneck -14.8125 -0.159373 -2.23768
upperneck 12.7305 0.0638502 1.28805
head 6.29684 0.0283268 0.782343
rclavicle 1.78906e-015 -3.97569e-015
rhumerus -21.391 -20.1106 -81.5588
rradius 21.7769
rwrist 37.9971
rhand -21.3556 -27.6828
rfingers 7.12502
rthumb 5.031 -57.6031
lclavicle 1.78906e-015 -3.97569e-015
lhumerus -23.6437 4.19685 86.5167
lradius 14.831
lwrist -1.75396
lhand -25.5625 -6.12963
lfingers 7.12502
lthumb 0.968325 23.8479
rfemur -13.3699 -1.77127 21.2268
rtibia 21.7922
rfoot -14.1674 -3.46101
rtoes 5.10155
lfemur -14.5714 7.40985 -17.6257
ltibia 20.281
lfoot -10.4686 4.76021
ltoes -11.2781
578
root -0.171432 17.6729 10.5911 7.24379 -0.600774 -1.69843
lowerback -0.956642 -0.0214537 0.145246
upperback 1.52886 -0.0599403 1.5033
thorax 2.10464 -0.0405969 1.45851
lowerneck -14.8466 -0.156503 -2.24413
upperneck 12.6759 0.0705047 1.28569
head 6.28501 0.0313471 0.783137
rclavicle 1.98785e-016 -1.2921e-014
rhumerus -21.4872 -20.2566 -81.4978
rradius 21.6994
rwrist 38.1389
rhand -21.3296 -27.6484
rfingers 7.12502
rthumb 5.05613 -57.5681
lclavicle 1.98785e-016 -1.2921e-014
lhumerus -23.689 4.39619 86.3669
lradius 14.7524
lwrist -1.8815
lhand -25.6092 -6.38943
lfingers 7.12502
lthumb 0.923204 23.5883
rfemur -13.3424 -1.77802 21.2077
rtibia 21.7857
rfoot -14.1844 -3.48855
rtoes 5.1235
lfemur -14.5356 7.40488 -17.6421
ltibia 20.2379
lfoot -10.4709 4.7321
ltoes -11.2641
